<svg xmlns="http://www.w3.org/2000/svg" viewBox="0 0 512 512">
  <style>
    path {
      fill: #3b3b3b;
    }
    @media (prefers-color-scheme: dark) {
      path {
        fill: #eeefeb;
      }
    }
  </style>
  <path fill="#3b3b3b" d="M137 123.5V48.3h-.4C60.4 53.3 0 117.2 0 195.3h74.5c0-36.6 27.1-67.2 62.5-71.8zm80.7 71.8h75.9c0-36.5 27.1-67.2 62.4-71.8V48.3h-.4c-39.7 2.6-75.1 21.2-99.9 49.5-24.8-28.3-60-46.9-99.5-49.5v75.2c34.9 5 61.5 35.2 61.5 71.8zm219 0h74.5c0-78.1-59.9-142-136.1-147v75.2c34.9 5 61.6 35.2 61.6 71.8zM77.8 215.5H0C5.8 339 199.8 441.1 246 463.7v-78.6h.4c-36.6-18-162.7-86.9-168.6-169.6zm356.8 0c-5.4 82.8-132 151.7-168.6 169.7v78.6c46.2-22.7 240.6-124.8 246-248.3h-77.4z"/>
</svg>
