<?xml version="1.0" encoding="utf-8"?>
<!-- Generator: Adobe Illustrator 26.0.2, SVG Export Plug-In . SVG Version: 6.00 Build 0)  -->
<svg version="1.1" id="Слой_1" xmlns="http://www.w3.org/2000/svg" xmlns:xlink="http://www.w3.org/1999/xlink" x="0px" y="0px"
	 viewBox="0 0 512 512" style="enable-background:new 0 0 512 512;" xml:space="preserve">
<style type="text/css">
	.st0{fill:#77BA59;}
	.st1{font-family:'MyriadPro-Regular';}
	.st2{font-size:12px;}
</style>
<g>
	<path class="st0" d="M137,123.5V48.3h-0.4C60.4,53.3,0,117.2,0,195.3h74.5C74.5,158.7,101.6,128.1,137,123.5z"/>
	<path class="st0" d="M217.7,195.3h1.3h73.3h1.3c0-36.5,27.1-67.2,62.4-71.8V48.3h-0.4c-39.7,2.6-75.1,21.2-99.9,49.5
		c-24.8-28.3-60-46.9-99.5-49.5v75.2C191.1,128.5,217.7,158.7,217.7,195.3z"/>
	<path class="st0" d="M436.7,195.3h74.5c0-78.1-59.9-142-136.1-147v75.2C410,128.5,436.7,158.7,436.7,195.3z"/>
	<path class="st0" d="M77.8,215.5H0C5.8,339,199.8,441.1,246,463.7v-78.6h0.4C209.8,367.1,83.7,298.2,77.8,215.5z"/>
	<path class="st0" d="M434.6,215.5c-5.4,82.8-132,151.7-168.6,169.7v78.6c46.2-22.7,240.6-124.8,246-248.3H434.6z"/>
</g>
<text transform="matrix(1 0 0 1 250.9998 260.2194)" class="st0 st1 st2">.</text>
</svg>
