<svg viewBox="0 0 1440 60" fill="none" xmlns="http://www.w3.org/2000/svg">
<rect x="-248.793" y="1.22803" width="1805" height="58" fill="#ECEBE8" stroke="#242424"/>
<path d="M404.107 33.6873H400.467V23.4473H397.187V33.6873H385.507L383.187 34.2473V33.2873C392.707 29.0473 397.027 22.4073 398.067 14.5273H394.787C393.947 22.2873 388.627 27.9273 382.227 30.6473V36.4873H397.187V42.7273H400.467V36.4873H404.107V33.6873ZM419.647 14.1273C411.727 14.1273 407.607 20.3273 407.607 28.6073C407.607 36.9273 411.727 43.1273 419.647 43.1273C427.487 43.1273 431.607 36.9273 431.607 28.6073C431.607 20.3273 427.487 14.1273 419.647 14.1273ZM419.647 16.9273C422.087 16.9273 423.967 17.7673 425.407 19.2473L412.127 35.4473C411.287 33.5673 410.847 31.2473 410.847 28.6073C410.847 21.8073 413.767 16.9273 419.647 16.9273ZM419.647 40.3273C417.167 40.3273 415.247 39.4873 413.807 37.9673L427.087 21.7673C427.927 23.6473 428.367 25.9673 428.367 28.6073C428.367 35.4473 425.487 40.3273 419.647 40.3273ZM457.76 33.6873H454.12V23.4473H450.84V33.6873H439.16L436.84 34.2473V33.2873C446.36 29.0473 450.68 22.4073 451.72 14.5273L448.44 14.5273C447.6 22.2873 442.28 27.9273 435.88 30.6473V36.4873H450.84V42.7273H454.12V36.4873H457.76V33.6873Z" fill="#242424"/>
<path d="M-5.89297 33.6873H-9.53297V23.4473H-12.813V33.6873H-24.493L-26.813 34.2473V33.2873C-17.293 29.0473 -12.973 22.4073 -11.933 14.5273H-15.213C-16.053 22.2873 -21.373 27.9273 -27.773 30.6473V36.4873H-12.813V42.7273H-9.53297V36.4873H-5.89297V33.6873ZM9.64734 14.1273C1.72734 14.1273 -2.39266 20.3273 -2.39266 28.6073C-2.39266 36.9273 1.72734 43.1273 9.64734 43.1273C17.4873 43.1273 21.6073 36.9273 21.6073 28.6073C21.6073 20.3273 17.4873 14.1273 9.64734 14.1273ZM9.64734 16.9273C12.0873 16.9273 13.9673 17.7673 15.4073 19.2473L2.12734 35.4473C1.28734 33.5673 0.847344 31.2473 0.847344 28.6073C0.847344 21.8073 3.76734 16.9273 9.64734 16.9273ZM9.64734 40.3273C7.16735 40.3273 5.24734 39.4873 3.80734 37.9673L17.0873 21.7673C17.9273 23.6473 18.3673 25.9673 18.3673 28.6073C18.3673 35.4473 15.4873 40.3273 9.64734 40.3273ZM47.7602 33.6873H44.1202V23.4473H40.8402V33.6873H29.1602L26.8402 34.2473V33.2873C36.3602 29.0473 40.6802 22.4073 41.7202 14.5273L38.4402 14.5273C37.6002 22.2873 32.2802 27.9273 25.8802 30.6473V36.4873H40.8402V42.7273H44.1202V36.4873H47.7602V33.6873Z" fill="#242424"/>
<path d="M609.107 33.6873H605.467V23.4473H602.187V33.6873H590.507L588.187 34.2473V33.2873C597.707 29.0473 602.027 22.4073 603.067 14.5273H599.787C598.947 22.2873 593.627 27.9273 587.227 30.6473V36.4873H602.187V42.7273H605.467V36.4873H609.107V33.6873ZM624.647 14.1273C616.727 14.1273 612.607 20.3273 612.607 28.6073C612.607 36.9273 616.727 43.1273 624.647 43.1273C632.487 43.1273 636.607 36.9273 636.607 28.6073C636.607 20.3273 632.487 14.1273 624.647 14.1273ZM624.647 16.9273C627.087 16.9273 628.967 17.7673 630.407 19.2473L617.127 35.4473C616.287 33.5673 615.847 31.2473 615.847 28.6073C615.847 21.8073 618.767 16.9273 624.647 16.9273ZM624.647 40.3273C622.167 40.3273 620.247 39.4873 618.807 37.9673L632.087 21.7673C632.927 23.6473 633.367 25.9673 633.367 28.6073C633.367 35.4473 630.487 40.3273 624.647 40.3273ZM662.76 33.6873H659.12V23.4473H655.84V33.6873H644.16L641.84 34.2473V33.2873C651.36 29.0473 655.68 22.4073 656.72 14.5273L653.44 14.5273C652.6 22.2873 647.28 27.9273 640.88 30.6473V36.4873H655.84V42.7273H659.12V36.4873H662.76V33.6873Z" fill="#242424"/>
<path d="M199.107 33.6873H195.467V23.4473H192.187V33.6873H180.507L178.187 34.2473V33.2873C187.707 29.0473 192.027 22.4073 193.067 14.5273H189.787C188.947 22.2873 183.627 27.9273 177.227 30.6473V36.4873H192.187V42.7273H195.467V36.4873H199.107V33.6873ZM214.647 14.1273C206.727 14.1273 202.607 20.3273 202.607 28.6073C202.607 36.9273 206.727 43.1273 214.647 43.1273C222.487 43.1273 226.607 36.9273 226.607 28.6073C226.607 20.3273 222.487 14.1273 214.647 14.1273ZM214.647 16.9273C217.087 16.9273 218.967 17.7673 220.407 19.2473L207.127 35.4473C206.287 33.5673 205.847 31.2473 205.847 28.6073C205.847 21.8073 208.767 16.9273 214.647 16.9273ZM214.647 40.3273C212.167 40.3273 210.247 39.4873 208.807 37.9673L222.087 21.7673C222.927 23.6473 223.367 25.9673 223.367 28.6073C223.367 35.4473 220.487 40.3273 214.647 40.3273ZM252.76 33.6873H249.12V23.4473H245.84V33.6873H234.16L231.84 34.2473V33.2873C241.36 29.0473 245.68 22.4073 246.72 14.5273L243.44 14.5273C242.6 22.2873 237.28 27.9273 230.88 30.6473V36.4873H245.84V42.7273H249.12V36.4873H252.76V33.6873Z" fill="#242424"/>
<path d="M814.107 33.6873H810.467V23.4473H807.187V33.6873H795.507L793.187 34.2473V33.2873C802.707 29.0473 807.027 22.4073 808.067 14.5273H804.787C803.947 22.2873 798.627 27.9273 792.227 30.6473V36.4873H807.187V42.7273H810.467V36.4873H814.107V33.6873ZM829.647 14.1273C821.727 14.1273 817.607 20.3273 817.607 28.6073C817.607 36.9273 821.727 43.1273 829.647 43.1273C837.487 43.1273 841.607 36.9273 841.607 28.6073C841.607 20.3273 837.487 14.1273 829.647 14.1273ZM829.647 16.9273C832.087 16.9273 833.967 17.7673 835.407 19.2473L822.127 35.4473C821.287 33.5673 820.847 31.2473 820.847 28.6073C820.847 21.8073 823.767 16.9273 829.647 16.9273ZM829.647 40.3273C827.167 40.3273 825.247 39.4873 823.807 37.9673L837.087 21.7673C837.927 23.6473 838.367 25.9673 838.367 28.6073C838.367 35.4473 835.487 40.3273 829.647 40.3273ZM867.76 33.6873H864.12V23.4473H860.84V33.6873H849.16L846.84 34.2473V33.2873C856.36 29.0473 860.68 22.4073 861.72 14.5273L858.44 14.5273C857.6 22.2873 852.28 27.9273 845.88 30.6473V36.4873H860.84V42.7273H864.12V36.4873H867.76V33.6873Z" fill="#242424"/>
<path d="M1019.11 33.6873H1015.47V23.4473H1012.19V33.6873H1000.51L998.187 34.2473V33.2873C1007.71 29.0473 1012.03 22.4073 1013.07 14.5273H1009.79C1008.95 22.2873 1003.63 27.9273 997.227 30.6473V36.4873H1012.19V42.7273H1015.47V36.4873H1019.11V33.6873ZM1034.65 14.1273C1026.73 14.1273 1022.61 20.3273 1022.61 28.6073C1022.61 36.9273 1026.73 43.1273 1034.65 43.1273C1042.49 43.1273 1046.61 36.9273 1046.61 28.6073C1046.61 20.3273 1042.49 14.1273 1034.65 14.1273ZM1034.65 16.9273C1037.09 16.9273 1038.97 17.7673 1040.41 19.2473L1027.13 35.4473C1026.29 33.5673 1025.85 31.2473 1025.85 28.6073C1025.85 21.8073 1028.77 16.9273 1034.65 16.9273ZM1034.65 40.3273C1032.17 40.3273 1030.25 39.4873 1028.81 37.9673L1042.09 21.7673C1042.93 23.6473 1043.37 25.9673 1043.37 28.6073C1043.37 35.4473 1040.49 40.3273 1034.65 40.3273ZM1072.76 33.6873H1069.12V23.4473H1065.84V33.6873H1054.16L1051.84 34.2473V33.2873C1061.36 29.0473 1065.68 22.4073 1066.72 14.5273L1063.44 14.5273C1062.6 22.2873 1057.28 27.9273 1050.88 30.6473V36.4873H1065.84V42.7273H1069.12V36.4873H1072.76V33.6873Z" fill="#242424"/>
<path d="M1221.11 33.6873H1217.47V23.4473H1214.19V33.6873H1202.51L1200.19 34.2473V33.2873C1209.71 29.0473 1214.03 22.4073 1215.07 14.5273H1211.79C1210.95 22.2873 1205.63 27.9273 1199.23 30.6473V36.4873H1214.19V42.7273H1217.47V36.4873H1221.11V33.6873ZM1236.65 14.1273C1228.73 14.1273 1224.61 20.3273 1224.61 28.6073C1224.61 36.9273 1228.73 43.1273 1236.65 43.1273C1244.49 43.1273 1248.61 36.9273 1248.61 28.6073C1248.61 20.3273 1244.49 14.1273 1236.65 14.1273ZM1236.65 16.9273C1239.09 16.9273 1240.97 17.7673 1242.41 19.2473L1229.13 35.4473C1228.29 33.5673 1227.85 31.2473 1227.85 28.6073C1227.85 21.8073 1230.77 16.9273 1236.65 16.9273ZM1236.65 40.3273C1234.17 40.3273 1232.25 39.4873 1230.81 37.9673L1244.09 21.7673C1244.93 23.6473 1245.37 25.9673 1245.37 28.6073C1245.37 35.4473 1242.49 40.3273 1236.65 40.3273ZM1274.76 33.6873H1271.12V23.4473H1267.84V33.6873H1256.16L1253.84 34.2473V33.2873C1263.36 29.0473 1267.68 22.4073 1268.72 14.5273L1265.44 14.5273C1264.6 22.2873 1259.28 27.9273 1252.88 30.6473V36.4873H1267.84V42.7273H1271.12V36.4873H1274.76V33.6873Z" fill="#242424"/>
<path d="M1426.11 33.6873H1422.47V23.4473H1419.19V33.6873H1407.51L1405.19 34.2473V33.2873C1414.71 29.0473 1419.03 22.4073 1420.07 14.5273H1416.79C1415.95 22.2873 1410.63 27.9273 1404.23 30.6473V36.4873H1419.19V42.7273H1422.47V36.4873H1426.11V33.6873ZM1441.65 14.1273C1433.73 14.1273 1429.61 20.3273 1429.61 28.6073C1429.61 36.9273 1433.73 43.1273 1441.65 43.1273C1449.49 43.1273 1453.61 36.9273 1453.61 28.6073C1453.61 20.3273 1449.49 14.1273 1441.65 14.1273ZM1441.65 16.9273C1444.09 16.9273 1445.97 17.7673 1447.41 19.2473L1434.13 35.4473C1433.29 33.5673 1432.85 31.2473 1432.85 28.6073C1432.85 21.8073 1435.77 16.9273 1441.65 16.9273ZM1441.65 40.3273C1439.17 40.3273 1437.25 39.4873 1435.81 37.9673L1449.09 21.7673C1449.93 23.6473 1450.37 25.9673 1450.37 28.6073C1450.37 35.4473 1447.49 40.3273 1441.65 40.3273ZM1479.76 33.6873H1476.12V23.4473H1472.84V33.6873H1461.16L1458.84 34.2473V33.2873C1468.36 29.0473 1472.68 22.4073 1473.72 14.5273L1470.44 14.5273C1469.6 22.2873 1464.28 27.9273 1457.88 30.6473V36.4873H1472.84V42.7273H1476.12V36.4873H1479.76V33.6873Z" fill="#242424"/>
</svg>
