<svg width="43" height="34" viewBox="0 0 43 34" fill="none" xmlns="http://www.w3.org/2000/svg">
<path d="M11.4447 0C5.05939 0.408946 0 5.58893 0 11.9276H6.24574C6.24574 8.96273 8.51374 6.47498 11.4796 6.10011V0H11.4447Z" fill="#2E2E2E"/>
<path d="M13.084 0V6.10011C16.0149 6.50906 18.2481 8.96273 18.2481 11.9276H24.4938C24.4938 5.58893 19.4344 0.408946 13.084 0Z" fill="#2E2E2E"/>
<path d="M29.9506 0C23.5653 0.408946 18.5059 5.58893 18.5059 11.9276H24.7516C24.7516 8.96273 27.0196 6.47498 29.9855 6.10011V0H29.9506Z" fill="#2E2E2E"/>
<path d="M31.5898 0V6.10011C34.5208 6.50906 36.7539 8.96273 36.7539 11.9276H42.9996C42.9996 5.58893 37.9751 0.408946 31.5898 0Z" fill="#2E2E2E"/>
<path d="M20.6563 27.6273C17.5858 26.162 7.01337 20.573 6.52487 13.8595H0C0.488494 23.8787 16.7484 32.1598 20.6214 34.0001V27.6273H20.6563Z" fill="#2E2E2E"/>
<path d="M36.4283 13.8595C35.9747 20.573 25.3674 26.162 22.2969 27.6273V34.0001C26.1699 32.1598 42.4647 23.8787 42.9183 13.8595H36.4283Z" fill="#2E2E2E"/>
</svg>
