<?xml version="1.0" standalone="no"?>
<!DOCTYPE svg PUBLIC "-//W3C//DTD SVG 20010904//EN"
 "http://www.w3.org/TR/2001/REC-SVG-20010904/DTD/svg10.dtd">
<svg version="1.0" xmlns="http://www.w3.org/2000/svg"
 width="688.000000pt" height="688.000000pt" viewBox="0 0 688.000000 688.000000"
 preserveAspectRatio="xMidYMid meet">
<metadata>
Created by potrace 1.14, written by Peter Selinger 2001-2017
</metadata>
<g transform="translate(0.000000,688.000000) scale(0.100000,-0.100000)"
fill="#000000" stroke="none">
<path d="M1685 6224 c-49 -8 -119 -21 -155 -29 -36 -9 -68 -16 -72 -16 -12 0
-208 -69 -258 -91 -76 -33 -196 -95 -266 -139 -57 -34 -167 -112 -184 -129 -3
-3 -31 -27 -62 -53 -227 -191 -429 -471 -542 -755 -57 -141 -111 -336 -121
-434 -3 -22 -7 -59 -11 -82 -4 -23 -7 -84 -8 -136 l-1 -95 498 0 c435 0 497 2
498 15 1 8 2 31 4 50 4 59 15 133 27 175 7 22 12 42 13 45 5 25 32 94 51 132
14 27 25 51 26 55 2 11 88 134 112 161 96 106 203 190 301 236 22 10 48 23 59
28 28 15 125 44 189 57 l57 12 1 40 c1 65 1 109 -1 117 -1 4 -2 11 -1 16 1 7
2 78 1 189 -1 9 0 100 1 201 0 102 -2 189 -6 195 -3 6 -3 16 1 22 11 18 10
139 0 139 -6 0 -6 4 0 10 5 5 8 26 6 45 -5 40 -7 40 -157 19z"/>
<path d="M2099 6213 c0 -15 -1 -242 -1 -503 l-1 -475 44 -13 c24 -7 56 -14 70
-17 62 -11 175 -60 259 -113 30 -19 57 -37 60 -41 3 -3 21 -18 41 -33 34 -25
76 -67 130 -128 36 -41 106 -152 133 -212 56 -123 87 -249 90 -373 l1 -41 508
0 c279 0 507 3 508 6 0 3 3 34 5 70 17 226 115 440 279 605 140 141 267 215
459 264 l99 26 -1 475 c0 261 -1 487 -1 503 l-1 27 -62 -5 c-35 -3 -90 -10
-123 -16 -33 -6 -69 -12 -80 -13 -11 -2 -40 -9 -65 -16 -25 -7 -53 -14 -62
-16 -43 -10 -57 -14 -133 -42 -105 -39 -180 -70 -235 -101 -25 -13 -54 -29
-65 -35 -11 -6 -28 -18 -39 -26 -10 -8 -21 -14 -25 -14 -9 2 -114 -70 -191
-130 -36 -28 -109 -93 -162 -144 -53 -52 -100 -93 -105 -92 -4 0 -53 44 -108
98 -91 87 -236 206 -275 225 -8 4 -42 25 -75 47 -55 36 -167 94 -255 133 -149
66 -386 126 -557 142 l-63 6 -1 -28z"/>
<path d="M5039 6228 c-4 -69 -3 -88 4 -88 5 0 5 -5 2 -11 -9 -13 -9 -889 0
-897 3 -3 18 -8 33 -9 105 -13 301 -98 396 -173 243 -191 372 -432 391 -730 2
-25 4 -47 4 -50 1 -3 225 -5 499 -5 l497 0 -1 75 c-1 79 -13 231 -20 241 -2 4
-6 24 -9 45 -3 22 -8 50 -12 64 -3 14 -8 32 -10 40 -2 8 -5 24 -7 35 -21 109
-160 452 -188 463 -4 2 -8 8 -8 14 0 16 -75 132 -151 233 -100 133 -210 243
-380 380 -40 31 -169 115 -179 115 -5 0 -10 5 -10 11 0 5 -4 8 -9 4 -5 -3 -12
-1 -15 4 -20 31 -338 165 -445 187 -14 3 -28 7 -31 9 -4 2 -22 7 -41 10 -19 3
-54 11 -79 16 -25 6 -63 12 -85 14 -22 3 -64 7 -92 10 -39 4 -53 2 -54 -7z"/>
<path d="M22 3992 c-22 -3 -23 -6 -16 -75 5 -61 28 -190 50 -286 15 -71 84
-252 139 -366 157 -331 376 -627 714 -965 283 -282 524 -484 896 -748 94 -67
175 -125 180 -130 6 -5 15 -11 20 -13 9 -4 104 -66 275 -178 30 -20 59 -38 65
-41 5 -3 82 -48 170 -101 88 -52 180 -106 205 -120 25 -13 47 -27 50 -30 3 -3
33 -20 67 -37 71 -36 106 -55 113 -62 8 -8 301 -157 330 -168 l26 -10 -1 524
c0 335 -4 526 -10 532 -5 5 -57 34 -115 63 -132 67 -345 187 -473 268 -54 33
-102 61 -108 61 -5 0 -9 3 -9 8 0 4 -17 16 -37 27 -20 11 -41 25 -48 30 -21
19 -74 55 -82 55 -4 0 -23 14 -42 30 -18 17 -39 30 -47 30 -7 0 -14 4 -16 8
-1 4 -39 35 -83 67 -78 57 -265 203 -275 214 -3 3 -34 30 -70 60 -57 48 -357
346 -385 383 -6 7 -36 45 -67 83 -48 61 -137 187 -175 250 -37 61 -114 219
-133 275 -13 36 -28 71 -33 78 -5 6 -7 12 -4 12 3 0 1 15 -4 33 -13 42 -35
158 -42 226 -2 13 -73 15 -502 15 -275 1 -510 0 -523 -2z"/>
<path d="M5843 3986 c-3 -4 -7 -28 -10 -52 -2 -24 -8 -66 -14 -92 -5 -26 -11
-54 -13 -62 -2 -8 -6 -22 -9 -30 -2 -8 -15 -46 -27 -85 -54 -169 -192 -404
-349 -595 -107 -131 -301 -326 -447 -450 -121 -103 -131 -111 -249 -200 -44
-34 -87 -66 -95 -73 -26 -20 -101 -71 -190 -131 -47 -31 -89 -59 -95 -64 -23
-17 -275 -172 -281 -172 -3 0 -18 -8 -32 -19 -15 -10 -48 -30 -74 -45 -27 -14
-67 -37 -90 -50 -24 -13 -91 -49 -151 -80 -59 -31 -115 -61 -125 -67 -17 -10
-18 -43 -17 -533 0 -340 3 -521 10 -521 13 1 187 90 405 208 82 45 333 189
448 258 41 24 81 49 91 54 44 26 334 215 401 262 41 29 83 58 94 65 10 7 46
33 80 58 34 25 79 56 99 70 20 14 37 28 37 33 0 4 5 7 11 7 6 0 16 6 23 13 7
6 25 21 41 32 51 37 250 199 253 207 2 4 8 8 13 8 5 0 24 15 43 33 18 17 54
49 78 70 80 67 221 202 344 329 279 288 495 587 637 880 20 42 37 79 37 82 0
4 8 25 19 49 25 57 58 145 67 182 4 17 8 35 10 40 20 66 34 127 38 160 2 22 5
40 7 40 2 0 3 10 14 118 5 52 4 67 -7 68 -102 6 -1021 2 -1025 -5z"/>
</g>
</svg>
