<svg xmlns="http://www.w3.org/2000/svg" fill="none" viewBox="0 0 93 81">
  <path fill="#242424" d="M58.673 34.645h-3.268a3.126 3.126 0 01-3.09 2.71v3.272c3.369 0 6.13-2.633 6.358-5.983zm0-.87c-.203-3.35-2.99-6.008-6.358-6.008v3.272a3.154 3.154 0 013.116 2.736h3.242z"/>
  <path fill="#242424" d="M58.673 43.414c-.203-3.35-2.99-6.009-6.358-6.009v3.273a3.154 3.154 0 013.116 2.736h3.242zm0 .869h-3.268a3.126 3.126 0 01-3.09 2.71v3.273c3.369 0 6.13-2.633 6.358-5.983zM35.34 0c-3.319.205-5.953 3.017-5.953 6.417h3.242c0-1.61 1.191-2.94 2.711-3.144V0zm16.113 27.817c-3.318.23-5.953 3.017-5.953 6.418h3.243c0-1.61 1.19-2.915 2.71-3.145v-3.273zM36.176 0v3.298c1.52.205 2.685 1.534 2.685 3.12h3.243A6.386 6.386 0 0036.176 0zm16.062 8.872v3.298c1.52.205 2.686 1.534 2.686 3.12h3.242c.026-3.426-2.609-6.213-5.928-6.418zM36.15 22.679c3.32-.205 5.954-3.017 5.954-6.418H38.86c0 1.611-1.19 2.94-2.71 3.145v3.273zm-.835-.026v-3.272c-1.52-.205-2.685-1.535-2.685-3.12h-3.243c-.025 3.4 2.61 6.188 5.928 6.392zM22.42.46h-3.217v21.681h3.218V.46zm10.21 9.18h-9.4v3.246h9.4V9.64zM58.192.46H45.45v3.247h12.743V.46zM42.104 9.64h-3.243v3.246h3.243V9.64z"/>
  <path fill="#242424" d="M52.999 8.872h-3.243v3.247h3.243V8.872zM35.315 27.69c-3.319.204-5.954 3.017-5.954 6.417h3.243c0-1.61 1.19-2.94 2.71-3.144V27.69zm.861 0v3.298c1.52.205 2.685 1.534 2.685 3.12h3.243c0-3.401-2.635-6.188-5.928-6.418zm-.026 22.806c3.32-.204 5.954-3.017 5.954-6.417H38.86c0 1.61-1.19 2.94-2.71 3.144v3.273zm-.86 0v-3.298c-1.52-.205-2.686-1.534-2.686-3.12h-3.243c0 3.401 2.61 6.188 5.928 6.418zm6.814-15.468h-3.243v8.105h3.243v-8.105zm6.664-1.688h-3.243v3.247h3.243V33.34zm0 8.182h-3.243v3.247h3.243v-3.247zm5.295-4.193h-8.665v3.247h8.665v-3.247zm-21.459-2.301h-3.243v8.105h3.243v-8.105zM48.692 4.679h-3.243v7.389h3.243v-7.39z"/>
  <path fill="#242424" d="M51.453 50.369V47.07c-1.52-.204-2.685-1.534-2.685-3.119h-3.243c0 3.4 2.61 6.188 5.928 6.418zM73.29 34.644h-3.268a3.126 3.126 0 01-3.09 2.71v3.273c3.369 0 6.13-2.634 6.358-5.983z"/>
  <path fill="#242424" d="M73.29 43.414c-.202-3.35-2.989-6.009-6.358-6.009v3.273a3.154 3.154 0 013.116 2.736h3.242zM65.21 28.15h-3.243v8.437h3.243V28.15zm0 13.372h-3.243v8.335h3.243v-8.335z"/>
  <path fill="#242424" d="M68.427 37.329H61.84v3.247h6.587v-3.247zm13.199-3.989h-3.243v3.247h3.243V33.34zm9.5 0h-3.243v3.247h3.243V33.34zm0 8.054h-3.243v3.247h3.243v-3.247z"/>
  <path fill="#242424" d="M84.336 27.69c-3.319.23-5.953 3.017-5.953 6.417h3.243c0-1.61 1.19-2.914 2.71-3.144V27.69zm.861 0v3.298c1.52.205 2.686 1.534 2.686 3.12h3.242c0-3.401-2.609-6.188-5.928-6.418zm-9.095-.051c-3.319.204-5.954 3.017-5.954 6.417h3.243c0-1.61 1.19-2.915 2.71-3.145V27.64zm0 22.857c-3.319-.204-5.954-3.017-5.954-6.417h3.243c0 1.61 1.19 2.94 2.71 3.144v3.273zm15.024-6.673h-3.218v6.009h3.218v-6.009zm-9.5-2.429h-3.243v3.247h3.243v-3.247z"/>
  <path fill="#242424" d="M81.626 43.823h-3.218v6.009h3.218v-6.009zm9.5-6.494H78.383v3.247h12.743v-3.247zM6.004 5.625H2.762v3.247h3.242V5.625zm9.5 0h-3.242v3.247h3.242V5.625zm17.1 0h-3.243v3.247h3.243V5.625zm9.526 0h-3.243v3.247h3.242V5.625zm-9.526 8.079h-3.243v3.247h3.243v-3.247zm9.526 0h-3.243v3.247h3.242v-3.247zm10.108 8.975c3.319-.205 5.954-3.017 5.954-6.418h-3.243c0 1.611-1.19 2.94-2.71 3.145v3.273zm-.861-.026v-3.272c-1.52-.205-2.685-1.535-2.685-3.12h-3.243c0 3.4 2.61 6.188 5.928 6.392z"/>
  <path fill="#242424" d="M48.692 12.938h-3.243v4.014h3.243v-4.015zM6.004 9.946H2.762v7.005h3.242V9.946zM8.715 0C5.396.23 2.762 3.017 2.762 6.417h3.242a3.184 3.184 0 012.711-3.144V0zm.861 0v3.298c1.52.205 2.685 1.534 2.685 3.12h3.243c0-3.401-2.61-6.188-5.928-6.418z"/>
  <path fill="#242424" d="M.025 22.525c3.32-.204 5.954-2.991 5.954-6.417H2.736c0 1.61-1.19 2.915-2.71 3.145v3.272zm15.48-12.579h-3.218v12.196h3.217V9.946zm49.628 1.278l-3.217 4.321V.46h3.217v10.764zm9.678 10.969h-3.217V11.71l3.217-4.116v14.599zM74.81.025L61.917 17.54v5.242L74.811 5.395V.025zm-59.433 39.17l-3.217 4.04V38.99l3.217-4.346v4.551zm10.311 10.688h-3.217V38.889l3.217-3.861v14.855zm0-22.168L12.16 45.23v5.242l13.528-17.386v-5.37zm-10.311 0L0 45.23v5.242l15.377-17.386v-5.37zM70.15 55.073c-4.637.307-8.31 4.193-8.31 8.948h4.535c0-2.224 1.646-4.09 3.8-4.372v-4.576h-.026zm1.19 0v4.576c2.128.307 3.75 2.148 3.75 4.372h4.534c0-4.755-3.673-8.641-8.284-8.948z"/>
  <path fill="#242424" d="M83.475 55.073c-4.636.307-8.309 4.193-8.309 8.948h4.535c0-2.224 1.646-4.09 3.8-4.372v-4.576h-.026zm1.191 0v4.576c2.128.307 3.75 2.148 3.75 4.372h4.534c0-4.755-3.648-8.641-8.284-8.948zm-7.829 20.505c-2.229-1.099-9.905-5.292-10.26-10.329H61.84c.354 7.517 12.16 13.73 14.972 15.11v-4.78h.025zm11.45-10.329c-.329 5.036-8.03 9.23-10.26 10.329v4.781C80.84 78.979 92.67 72.765 93 65.249h-4.712z"/>
</svg>
