<svg xmlns="http://www.w3.org/2000/svg" fill="none" viewBox="0 0 43 35">
  <path fill="currentColor" d="M11.467 0C5.069.424 0 5.786 0 12.35h6.258c0-3.07 2.272-5.645 5.244-6.033V0h-.035zm1.643 0v6.316c2.936.423 5.173 2.963 5.173 6.033h6.258C24.541 5.786 19.472.424 13.11 0z"/>
  <path fill="currentColor" d="M29.855 0C23.458.424 18.39 5.786 18.39 12.35h6.257c0-3.07 2.273-5.645 5.244-6.033V0h-.035zm1.643 0v6.316c2.937.423 5.174 2.963 5.174 6.033h6.258C42.93 5.786 37.896.424 31.498 0zM20.696 28.297c-3.076-1.518-13.67-7.304-14.159-14.255H0C.49 24.416 16.78 32.99 20.661 34.895v-6.597h.035zm15.802-14.254c-.454 6.95-11.082 12.736-14.158 14.254v6.597C26.22 32.99 42.546 24.416 43 14.043h-6.502z"/>
</svg>
