<svg xmlns="http://www.w3.org/2000/svg" viewBox="0 0 25 25" width="25" height="25" xml:space="preserve">
  <path d="M2 5h21v1H2zm1 7h20v1H3zm-1 7h19v1H2z"/>
  <circle cx="4.5" cy="12.5" r="2" fill="#ecebe8"/>
  <path d="M4.5 15C3.1 15 2 13.9 2 12.5S3.1 10 4.5 10 7 11.1 7 12.5 5.9 15 4.5 15zm0-4c-.8 0-1.5.7-1.5 1.5S3.7 14 4.5 14 6 13.3 6 12.5 5.3 11 4.5 11z"/>
  <circle cx="12.5" cy="5.5" r="2" fill="#ecebe8"/>
  <path d="M12.5 8C11.1 8 10 6.9 10 5.5S11.1 3 12.5 3 15 4.1 15 5.5 13.9 8 12.5 8zm0-4c-.8 0-1.5.7-1.5 1.5S11.7 7 12.5 7 14 6.3 14 5.5 13.3 4 12.5 4z"/>
  <circle cx="20.5" cy="19.5" r="2" fill="#ecebe8"/>
  <path d="M20.5 22c-1.4 0-2.5-1.1-2.5-2.5s1.1-2.5 2.5-2.5 2.5 1.1 2.5 2.5-1.1 2.5-2.5 2.5zm0-4c-.8 0-1.5.7-1.5 1.5s.7 1.5 1.5 1.5 1.5-.7 1.5-1.5-.7-1.5-1.5-1.5z"/>
</svg>
